<?xml version="1.0" encoding="UTF-8"?><svg xmlns="http://www.w3.org/2000/svg" viewBox="0 0 261.3 542.55"><defs><style>.d{fill:#e6e7e8;opacity:.19;}.e{fill:#a7a9ac;}.f{fill:#6d6e71;}.g{fill:#808285;}.h{fill:#d1d3d4;}.i{fill:#bcbec0;}.j{fill:#231f20;}.k{fill:#58595b;}.l{fill:#414042;}</style></defs><g id="a"/><g id="b"><g id="c"><g><path class="i" d="M130.65,0c-13.6,0-32.29,.58-42.08,1.25-13.95,.96-27.23,6.32-38,15.25l-12.9,10.7c-3.09,2.56-5.71,5.63-7.73,9.1-4.65,7.96-12.96,22.76-14.37,29.32-1.97,9.2-1.64,55.65,0,65.5,1.64,9.86,4.76,27.93,3.94,39.76-.82,11.83,0,200.13,0,200.13,0,0-.49,21.03-3.61,34.18-3.12,13.14,1.1,49.84,9.31,81.06,8.22,31.22,14.68,34.61,14.68,34.61,0,0,13.26,21.69,90.76,21.69V0Z"/><path class="h" d="M50.58,488.44c-7.94-31.77-9.81-48.85-13.09-76.24-4.38-39.43-6.17-136.05-6.17-136.05l1.48-78.21,.31-14.99C29.12,125.56,64.67,33.37,77.14,3.09c-9.7,2.41-18.79,6.97-26.56,13.41l-12.9,10.7c-3.09,2.56-5.71,5.63-7.73,9.1-4.66,7.96-12.96,22.76-14.37,29.32-1.97,9.2-1.64,55.65,0,65.5,1.64,9.86,4.76,27.93,3.94,39.76-.82,11.83,0,200.13,0,200.13,0,0-.49,21.03-3.61,34.18-3.12,13.14,1.1,49.84,9.31,81.06,8.22,31.22,14.68,34.61,14.68,34.61,0,0,3.21,5.21,15.59,10.53-1.23-10.81-4.91-42.95-4.91-42.95Z"/><path class="e" d="M130.65,0c13.6,0,32.29,.58,42.08,1.25,13.95,.96,27.23,6.32,38,15.25l12.9,10.7c3.09,2.56,5.71,5.63,7.73,9.1,4.65,7.96,12.96,22.76,14.37,29.32,1.97,9.2,1.64,55.65,0,65.5-1.64,9.86-4.77,27.93-3.94,39.76,.82,11.83,0,200.13,0,200.13,0,0,.49,21.03,3.61,34.18,3.12,13.14-1.1,49.84-9.31,81.06-8.22,31.22-14.68,34.61-14.68,34.61,0,0-13.26,21.69-90.76,21.69V0Z"/><path class="i" d="M210.72,488.44c7.94-31.77,9.81-48.85,13.09-76.24,4.38-39.43,6.17-136.05,6.17-136.05l-1.48-78.21-.31-14.99c3.98-57.38-31.57-149.58-44.04-179.85,9.7,2.41,18.79,6.97,26.56,13.41l12.9,10.7c3.09,2.56,5.71,5.63,7.73,9.1,4.65,7.96,12.96,22.76,14.37,29.32,1.97,9.2,1.64,55.65,0,65.5-1.64,9.86-4.77,27.93-3.94,39.76,.82,11.83,0,200.13,0,200.13,0,0,.49,21.03,3.61,34.18,3.12,13.14-1.1,49.84-9.31,81.06-8.22,31.22-14.68,34.61-14.68,34.61,0,0-3.21,5.21-15.59,10.53,1.23-10.81,4.91-42.95,4.91-42.95Z"/><path class="e" d="M228.2,182.94s6.13,6.29,20.16,9.82c14.02,3.53,12.93,14.81,12.93,14.81l-24.1-6.57-8.85-11.86-.13-6.2Z"/><path class="i" d="M33.1,182.94s-6.13,6.29-20.16,9.82C-1.08,196.3,.02,207.58,.02,207.58l24.1-6.57,8.85-11.86,.13-6.2Z"/><path class="j" d="M33.1,182.94l11.39,62.75,2.19,109.1s.22,35.93-9.2,57.4c-4.16-46.01-6.13-118.01-6.13-144.23s-.44-71.98,1.75-85.03Z"/><path class="j" d="M228.2,182.94l-11.39,62.75-2.19,109.1s-.22,35.93,9.2,57.4c4.16-46.01,6.13-118.01,6.13-144.23s.44-71.98-1.75-85.03Z"/><path class="l" d="M130.65,248.11c-19.43,0-62.87,3.4-78.24,9.83l2.8,87.76H206.09l2.8-87.76c-15.37-6.43-58.81-9.83-78.24-9.83Z"/><path class="j" d="M130.65,248.11c19.43,0,62.87,3.4,78.24,9.83l-2.8,87.76h-75.44v-97.59Z"/><g><path class="g" d="M54.4,408.24c-.02-1.23-1.87-123.81-5.21-174.98l2.75-.18c3.34,51.23,5.19,173.88,5.21,175.12l-2.75,.04Z"/><path class="i" d="M206.89,408.24l-2.75-.04c.02-1.23,1.87-123.88,5.21-175.11l2.75,.18c-3.33,51.16-5.19,173.74-5.21,174.97Z"/></g><path class="f" d="M130.65,128.71c-25.26,0-89.66,8.77-94.92,28.04,0,6.79,13.14,80.62,13.14,80.62,0,0,33.91-10.52,81.77-10.52s81.78,10.52,81.78,10.52c0,0,13.14-73.83,13.14-80.62-5.26-19.28-69.65-28.04-94.92-28.04Z"/><path class="l" d="M130.65,145.7c23.64,0,81.52,7.68,93.18,24.45,1.05-6.82,1.73-11.85,1.73-13.4-5.26-19.28-69.65-28.04-94.92-28.04s-89.66,8.77-94.92,28.04c0,1.54,.68,6.58,1.73,13.4,11.67-16.77,69.55-24.45,93.18-24.45Z"/><path class="k" d="M130.65,128.71c25.27,0,89.66,8.77,94.92,28.04,0,6.79-13.14,80.62-13.14,80.62,0,0-33.91-10.52-81.77-10.52v-98.14Z"/><path class="j" d="M223.83,170.15h0c.12-.76,.23-1.49,.33-2.2l.06-.4c.1-.64,.19-1.26,.27-1.85,.03-.17,.05-.35,.07-.52,.08-.54,.15-1.06,.22-1.56,.03-.22,.06-.42,.09-.63,.06-.44,.12-.86,.17-1.26,.03-.24,.06-.46,.09-.68,.04-.34,.09-.67,.12-.98,.03-.25,.06-.48,.08-.71,.03-.23,.05-.48,.08-.69,.03-.26,.05-.48,.06-.7,.01-.14,.03-.3,.04-.42,.02-.32,.04-.59,.04-.79-5.26-19.28-69.65-28.04-94.92-28.04v16.99c23.64,0,81.52,7.68,93.18,24.45Z"/><path class="f" d="M210.67,471.39l-2.24-63.03c-.08-2.35-2.38-3.96-4.62-3.23-27.68,9.01-73.17,9.6-73.17,9.6,0,0-45.49-.59-73.17-9.6-2.24-.73-4.53,.88-4.62,3.23l-2.24,63.03s-1.97,13.54,18.84,21.43c20.81,7.89,47.46,9.31,61.18,9.31s40.37-1.42,61.18-9.31c20.81-7.89,18.84-21.43,18.84-21.43Z"/><path class="l" d="M210.21,458.46c-1.23,4.66-5.31,11.84-18.38,16.79-20.81,7.89-47.46,9.31-61.18,9.31s-40.37-1.42-61.18-9.31c-13.07-4.95-17.15-12.13-18.38-16.79l-.46,12.93s-1.97,13.54,18.84,21.43c20.81,7.89,47.46,9.31,61.18,9.31s40.37-1.42,61.18-9.31c20.81-7.89,18.84-21.43,18.84-21.43l-.46-12.93Z"/><path class="k" d="M130.65,414.72s45.49-.59,73.17-9.6c2.24-.73,4.53,.88,4.62,3.23l2.24,63.03s1.97,13.54-18.84,21.43c-20.81,7.89-47.46,9.31-61.18,9.31v-87.41Z"/><path class="j" d="M210.67,471.39l-.46-12.93c-1.23,4.66-5.31,11.84-18.38,16.79-20.81,7.89-47.46,9.31-61.18,9.31v17.57c13.72,0,40.37-1.42,61.18-9.31,20.81-7.89,18.84-21.43,18.84-21.43Z"/><path class="d" d="M76.22,231.35c5.28-.88,11.2-1.73,17.7-2.46l-6.94-95.7c-8.59,1.56-17.13,3.55-24.72,5.96l13.97,92.2Z"/><path class="d" d="M76.22,345.7h17.7v-95.49c-6.03,.6-12.06,1.32-17.7,2.17v93.32Z"/><path class="d" d="M76.22,409.67l-7.11,83.01c.12,.05,.22,.1,.35,.15,5.32,2.01,11.01,3.6,16.78,4.86l7.26-85.48h0c-5.68-.66-11.55-1.49-17.27-2.53h0Z"/><path class="i" d="M29.94,36.3c-4.66,7.96-12.96,22.76-14.37,29.32-1.97,9.2-1.64,55.65,0,65.5,1.36,8.16,3.73,21.96,4.04,33.18h0S23.95,71.24,50.57,16.51l-12.89,10.7c-3.09,2.56-5.71,5.63-7.73,9.1Z"/><path class="e" d="M231.35,36.3c4.65,7.96,12.96,22.76,14.37,29.32,1.97,9.2,1.64,55.65,0,65.5-1.36,8.16-3.73,21.96-4.04,33.18h0s-4.33-93.05-30.96-147.79l12.9,10.7c3.09,2.56,5.71,5.63,7.73,9.1Z"/></g></g></g></svg>