<?xml version="1.0" encoding="utf-8"?>
<!-- Generator: Adobe Illustrator 26.1.0, SVG Export Plug-In . SVG Version: 6.00 Build 0)  -->
<svg version="1.1" id="Layer_1" xmlns="http://www.w3.org/2000/svg" xmlns:xlink="http://www.w3.org/1999/xlink" x="0px" y="0px"
	 viewBox="0 0 302.6 120.2" style="enable-background:new 0 0 302.6 120.2;" xml:space="preserve">
<style type="text/css">
	.st0{fill:#FFFFFF;}
</style>
<g id="a">
</g>
<g id="b">
	<g id="c">
		<g>
			<path class="st0" d="M294.9,42.9L239.1,0H133.3L89.9,43.4c-0.1,0.1-0.2,0.1-0.3,0.1H4.3c-0.8,0-1.4,0.2-1.9,0.7
				c-0.5,0.5-1,1.2-1.3,2.1c-0.5,1.4-0.8,3.2-0.9,5.3h294.8V42.9L294.9,42.9z M178.7,42.7h-75.8l30-32.3h45.8V42.7z M184.8,42.7
				V10.4h52.5l40.2,32.3H184.8L184.8,42.7z"/>
			<path class="st0" d="M4,82.3h35.9c3.8-11.7,14.7-20.1,27.6-20.1s23.9,8.5,27.6,20.1h134.3c3.8-11.8,14.8-20.4,27.9-20.4
				s24.1,8.6,27.9,20.4h9.8V53.4H0c0,0.2,0,0.5,0,0.7C0,63.5,2.6,76.3,4,82.3L4,82.3L4,82.3z"/>
			<path class="st0" d="M96.2,86.9c0.2,1.4,0.3,2.8,0.3,4.3s-0.1,2.9-0.3,4.3h132.1c-0.2-1.4-0.3-2.8-0.3-4.3s0.1-2.9,0.3-4.3H96.2z
				"/>
			<path class="st0" d="M7,86.9l2.4,8.6h29.4c-0.2-1.4-0.3-2.8-0.3-4.3s0.1-2.9,0.3-4.3H7z"/>
			<path class="st0" d="M286.5,91.2c0,1.5-0.1,2.9-0.3,4.3h10l6.5-8.6h-16.5C286.4,88.3,286.5,89.7,286.5,91.2L286.5,91.2z"/>
			<path class="st0" d="M91.9,91.2c0-6.8-2.7-12.8-7.2-17.3c-4.4-4.4-10.5-7.2-17.3-7.2s-12.8,2.7-17.3,7.2
				C45.8,78.3,43,84.4,43,91.2s2.7,12.8,7.2,17.3c4.4,4.4,10.5,7.1,17.3,7.2c6.8,0,12.8-2.7,17.3-7.2C89.2,104,91.9,97.9,91.9,91.2z
				 M67.5,105.1c-7.7,0-13.9-6.2-13.9-13.9s6.2-13.9,13.9-13.9s13.9,6.2,13.9,13.9S75.1,105.1,67.5,105.1z"/>
			<path class="st0" d="M35.5,120.2h254.7c1.3,0,2.3-1,2.3-2.3s-1-2.3-2.3-2.3h-29.6c5.5-0.8,10.4-3.3,14.1-7
				c4.5-4.5,7.2-10.6,7.2-17.4s-2.8-13-7.2-17.4c-4.5-4.5-10.6-7.2-17.4-7.2s-13,2.8-17.4,7.2c-4.5,4.5-7.2,10.6-7.2,17.4
				s2.8,13,7.2,17.4c3.7,3.7,8.6,6.2,14.1,7H35.5c-1.3,0-2.3,1-2.3,2.3S34.2,120.2,35.5,120.2z M243.2,91.2c0-7.7,6.3-14,14-14
				c7.7,0,14,6.3,14,14s-6.3,14-14,14S243.2,98.9,243.2,91.2L243.2,91.2z"/>
		</g>
	</g>
</g>
</svg>
