<?xml version="1.0" encoding="utf-8"?>
<!-- Generator: Adobe Illustrator 26.1.0, SVG Export Plug-In . SVG Version: 6.00 Build 0)  -->
<svg version="1.1" id="Layer_1" xmlns="http://www.w3.org/2000/svg" xmlns:xlink="http://www.w3.org/1999/xlink" x="0px" y="0px"
	 viewBox="0 0 307.1 133.9" style="enable-background:new 0 0 307.1 133.9;" xml:space="preserve">
<style type="text/css">
	.st0{fill:#FFFFFF;}
</style>
<g id="a">
</g>
<g id="b">
	<g id="c">
		<g>
			<path class="st0" d="M303.3,85c-1-2.7-2.3-5.9-3.9-9.2c-3.2-6.6-7.3-13.8-10.9-19.2c-2.3-3.5-4.5-6.3-6-7.6h-97.9
				c-0.2,0-0.4-0.2-0.5-0.4c-0.1-2.8-0.4-5-0.9-6.5c-0.5-1.5-1-2.5-1.6-2.9c-0.4-0.3-0.8-0.4-1.2-0.4c-0.7,0-1.5,0.3-2.3,0.9
				c-0.9,0.6-1.8,1.5-2.7,2.5c-1.8,2-3.6,4.6-4.9,6.7c-0.1,0.1-0.2,0.2-0.4,0.2h-23.1c-0.1,0-0.1,0-0.2-0.1h-34
				c-0.1,0-0.3-0.1-0.3-0.2c-0.1-0.1-0.1-0.2-0.1-0.4c3.4-17.6,15.7-30.5,33.4-39l0,0c0-0.1,0.1-0.3,0.1-0.5c0-0.4,0.1-1,0.1-1.7
				c0-1.4-0.1-3.1-0.2-4.6c-0.1-1.1-0.2-2.1-0.2-2.7c-0.1,0.1-0.3,0.1-0.6,0.2c-0.5,0.2-1.1,0.5-1.8,0.9c-1.4,0.8-3.3,1.9-5.2,3
				c-3.8,2.3-8,4.9-10,6.3c-0.6,0.4-1,0.7-1.1,0.8c-6.3,5.2-11.9,11.1-17.1,17.4c-3.1,3.8-5.9,7.7-8.8,11.7
				c-0.4,0.6-1.2,1.9-2.1,3.3s-2,2.9-3.1,3.9c-0.7,0.7-1.5,1.1-2.3,1.2H58.4c-11.1,0-21.4,5.1-29.9,12C19.9,67.5,13,76,8.6,82.7
				c-2,2.9-3.4,5.5-4.4,7.5h32.5c4.1-14.4,17.3-25,33-25s29,10.6,33,25h105.6c4.1-14.4,17.3-25,33.1-25s29,10.6,33,25h30.3
				C304.5,88.8,304,87,303.3,85L303.3,85z"/>
			<path class="st0" d="M307.1,94.8h-31.7c0.2,1.6,0.3,3.1,0.3,4.7s-0.1,3.2-0.3,4.7h31.7V94.8L307.1,94.8z"/>
			<path class="st0" d="M207.4,104.3c-0.2-1.6-0.3-3.1-0.3-4.7s0.1-3.2,0.3-4.7H103.7c0.2,1.6,0.3,3.1,0.3,4.7s-0.1,3.2-0.3,4.7
				H207.4z"/>
			<path class="st0" d="M0,104.3h35.7c-0.2-1.6-0.3-3.1-0.3-4.7s0.1-3.2,0.3-4.7H0V104.3L0,104.3z"/>
			<path class="st0" d="M99.5,99.5c0-8.2-3.3-15.7-8.7-21c-5.4-5.4-12.8-8.7-21-8.7s-15.7,3.3-21,8.7c-5.4,5.4-8.7,12.8-8.7,21
				s3.3,15.7,8.7,21c5.4,5.4,12.8,8.7,21,8.7s15.6-3.3,21-8.7C96.2,115.2,99.5,107.8,99.5,99.5z M69.7,116.2
				c-9.2,0-16.7-7.5-16.7-16.7s7.5-16.7,16.7-16.7s16.7,7.4,16.7,16.7S78.9,116.2,69.7,116.2z"/>
			<path class="st0" d="M271.1,99.5c0-8.2-3.3-15.7-8.7-21c-5.4-5.4-12.8-8.7-21-8.7s-15.6,3.3-21,8.7c-5.4,5.4-8.7,12.8-8.7,21
				c0,8.2,3.3,15.7,8.7,21c5.4,5.4,12.8,8.7,21,8.7s15.6-3.3,21-8.7C267.8,115.2,271.1,107.8,271.1,99.5z M241.4,116.2
				c-9.2,0-16.7-7.5-16.7-16.7s7.5-16.7,16.7-16.7S258,90.3,258,99.5S250.6,116.2,241.4,116.2L241.4,116.2z"/>
			<path class="st0" d="M24.8,129.3c-1.3,0-2.3,1-2.3,2.3s1,2.3,2.3,2.3h263c1.3,0,2.3-1,2.3-2.3s-1-2.3-2.3-2.3H24.8z"/>
		</g>
	</g>
</g>
</svg>
