<?xml version="1.0" encoding="utf-8"?>
<!-- Generator: Adobe Illustrator 26.1.0, SVG Export Plug-In . SVG Version: 6.00 Build 0)  -->
<svg version="1.1" id="Layer_1" xmlns="http://www.w3.org/2000/svg" xmlns:xlink="http://www.w3.org/1999/xlink" x="0px" y="0px"
	 viewBox="0 0 308.7 143" style="enable-background:new 0 0 308.7 143;" xml:space="preserve">
<style type="text/css">
	.st0{fill:#FFFFFF;}
</style>
<g id="a">
</g>
<g id="b">
	<g id="c">
		<g>
			<path class="st0" d="M270.1,17c-1.3-1.7-2.8-3.2-4.6-4.3c-1.8-1.1-3.8-1.7-6-1.7H219l1,6.4h39.5c0.6,0,1.1,0.1,1.6,0.3
				c1,0.3,2,1,3,2.2c0.9,1,1.9,2.4,2.7,4c1.5,2.8,2.9,6.5,4,10.5c1.4,5,2.5,10.7,3.2,16.1h6.5c-0.5-3.4-1-6.9-1.7-10.3
				c-0.7-3.6-1.6-7.1-2.6-10.4C274.7,24.9,272.8,20.5,270.1,17L270.1,17z"/>
			<path class="st0" d="M69.2,75.5c14.9,0,27.5,9.8,31.8,23.2h113c4.3-13.5,16.9-23.2,31.8-23.2c14.9,0,27.5,9.8,31.8,23.2h13.6
				V51.4H225c-0.2,0-0.4-0.2-0.4-0.4l-8.2-51h-77.7L86.8,46.6l-0.2,0.1c0,0-20.6,5.3-57.5,5.3c-6.8,0-12,2.3-15.9,5.9
				c-4,3.6-6.8,8.5-8.8,13.8C0.7,81.7,0.1,93,0,98.7h37.5C41.8,85.2,54.4,75.5,69.2,75.5L69.2,75.5z M165.9,10.8H196v34.1h-30.1
				V10.8z M139.9,10.8h18.4v34.1H104L139.9,10.8z"/>
			<path class="st0" d="M293.8,114.4v-11.1h-15.2c0.3,1.8,0.5,3.7,0.5,5.6s-0.2,3.8-0.5,5.6L293.8,114.4L293.8,114.4z"/>
			<path class="st0" d="M35.9,108.8c0-1.9,0.2-3.8,0.5-5.6H2.3l3.1,11.1h31C36.1,112.6,35.9,110.7,35.9,108.8L35.9,108.8z"/>
			<path class="st0" d="M212.9,114.4c-0.3-1.8-0.5-3.7-0.5-5.6s0.2-3.8,0.5-5.6H102.1c0.3,1.8,0.5,3.7,0.5,5.6s-0.2,3.8-0.5,5.6
				H212.9z"/>
			<path class="st0" d="M245.8,80.1c-8,0-15.1,3.2-20.4,8.4c-5.2,5.2-8.4,12.4-8.4,20.3s3.2,15.1,8.4,20.3
				c5.2,5.2,12.4,8.4,20.4,8.4s15.1-3.2,20.3-8.4c5.2-5.2,8.4-12.4,8.4-20.3s-3.2-15.1-8.4-20.3C260.9,83.3,253.7,80.1,245.8,80.1
				L245.8,80.1z M245.8,125c-8.9,0-16.2-7.2-16.2-16.1s7.2-16.2,16.2-16.2s16.1,7.2,16.1,16.2S254.7,125,245.8,125z"/>
			<path class="st0" d="M69.2,80.1c-8,0-15.1,3.2-20.3,8.4c-5.2,5.2-8.4,12.4-8.4,20.3s3.2,15.1,8.4,20.3c5.2,5.2,12.4,8.4,20.3,8.4
				s15.1-3.2,20.3-8.4c5.2-5.2,8.4-12.4,8.4-20.3s-3.2-15.1-8.4-20.3C84.3,83.3,77.2,80.1,69.2,80.1z M69.2,125
				c-8.9,0-16.2-7.2-16.2-16.1s7.2-16.2,16.2-16.2s16.1,7.2,16.1,16.2S78.2,125,69.2,125z"/>
			<path class="st0" d="M296.1,138.4H8c-1.3,0-2.3,1-2.3,2.3s1,2.3,2.3,2.3h288.1c1.3,0,2.3-1,2.3-2.3S297.4,138.4,296.1,138.4z"/>
			<path class="st0" d="M302.3,46.9c-1.8,0-3.4,0.7-4.5,1.9c-1.2,1.2-1.9,2.8-1.9,4.5v42.5c0,1.8,0.7,3.3,1.9,4.5
				c1.2,1.2,2.7,1.9,4.5,1.9s3.4-0.7,4.5-1.9c1.2-1.2,1.9-2.8,1.9-4.5V53.3c0-1.8-0.7-3.4-1.9-4.5C305.6,47.6,304.1,46.9,302.3,46.9
				L302.3,46.9z"/>
		</g>
	</g>
</g>
</svg>
