<?xml version="1.0" encoding="utf-8"?>
<!-- Generator: Adobe Illustrator 26.1.0, SVG Export Plug-In . SVG Version: 6.00 Build 0)  -->
<svg version="1.1" id="Layer_1" xmlns="http://www.w3.org/2000/svg" xmlns:xlink="http://www.w3.org/1999/xlink" x="0px" y="0px"
	 viewBox="0 0 306.4 130.5" style="enable-background:new 0 0 306.4 130.5;" xml:space="preserve">
<style type="text/css">
	.st0{fill:#FFFFFF;}
</style>
<g id="a">
</g>
<g id="b">
	<g id="c">
		<g>
			<path class="st0" d="M247.5,69.1c14.9,0,27.2,10.6,30.1,24.6h19.7V0H54.2c-0.1,2.5-1,6.3-2.3,10.6c-1.4,4.6-3.3,9.9-5.1,14.8
				C43,35.3,39.3,44,39.3,44c0,0.1-0.1,0.2-0.2,0.2L15.6,57.9L15.3,58c-1.1,0-2.1,0.4-3.1,1.1c-1,0.7-1.9,1.8-2.8,3.2
				c-1.7,2.7-3.1,6.4-4.2,10.3C3,80.4,1.9,89.1,1.5,92.6c0,0.5-0.1,0.8-0.1,1.1h31.1c2.8-13.9,15.1-24.3,29.8-24.3
				s27,10.4,29.8,24.3h125.2C220.2,79.7,232.6,69.1,247.5,69.1L247.5,69.1z M252.6,14.4h29.2v36.4h-29.2L252.6,14.4L252.6,14.4z
				 M91.6,50.8H62.4V14.4h29.2V50.8z M139.4,50.8h-29.2V14.4h29.2V50.8z M188.5,50.8h-29.2V14.4h29.2V50.8z M205.2,50.8V14.4h29.2
				v36.4H205.2z"/>
			<path class="st0" d="M31.9,99.8c0-0.4,0-0.8,0-1.1H0l2.8,9.3H33C32.3,105.4,31.9,102.6,31.9,99.8z"/>
			<path class="st0" d="M278.2,99.8c0,2.8-0.4,5.6-1.1,8.2h29.3v-9.3h-28.2C278.2,99.1,278.2,99.4,278.2,99.8L278.2,99.8z"/>
			<path class="st0" d="M217.9,108c-0.7-2.6-1.1-5.3-1.1-8.2c0-0.4,0-0.8,0-1.1h-124c0,0.4,0,0.8,0,1.1c0,2.8-0.4,5.6-1.1,8.2H217.9
				z"/>
			<path class="st0" d="M62.4,73.9c-7.2,0-13.6,2.9-18.3,7.6c-4.7,4.7-7.6,11.2-7.6,18.3s2.9,13.6,7.6,18.3
				c4.7,4.7,11.1,7.6,18.3,7.6s13.6-2.9,18.3-7.6c4.7-4.7,7.6-11.1,7.6-18.3s-2.9-13.6-7.6-18.3C76,76.8,69.5,73.9,62.4,73.9z
				 M62.4,114.5c-8.1,0-14.6-6.6-14.6-14.7s6.6-14.6,14.7-14.6S77,91.7,77,99.8S70.5,114.5,62.4,114.5z"/>
			<path class="st0" d="M291.2,125.7l-27.3,0h-13.2c5.9-0.7,11.2-3.4,15.2-7.4c4.7-4.7,7.6-11.3,7.6-18.5s-2.9-13.7-7.6-18.5
				c-4.7-4.7-11.2-7.7-18.5-7.7s-13.7,2.9-18.5,7.7s-7.6,11.2-7.6,18.5c0,7.2,2.9,13.7,7.6,18.5c4,4,9.3,6.7,15.2,7.4H231
				l-152.9,0.2l-31.5,0L11,126c-1.3,0-2.3,1-2.3,2.3c0,1.3,1,2.3,2.3,2.3l233-0.2h7.1l40.2-0.1c1.3,0,2.3-1,2.3-2.3
				S292.5,125.7,291.2,125.7L291.2,125.7z M232.7,99.8c0-8.2,6.6-14.8,14.8-14.8s14.8,6.6,14.8,14.8s-6.6,14.8-14.8,14.8
				S232.7,108,232.7,99.8L232.7,99.8z"/>
		</g>
	</g>
</g>
</svg>
