<?xml version="1.0" encoding="utf-8"?>
<!-- Generator: Adobe Illustrator 26.1.0, SVG Export Plug-In . SVG Version: 6.00 Build 0)  -->
<svg version="1.1" id="Layer_1" xmlns="http://www.w3.org/2000/svg" xmlns:xlink="http://www.w3.org/1999/xlink" x="0px" y="0px"
	 viewBox="0 0 305.1 123.5" style="enable-background:new 0 0 305.1 123.5;" xml:space="preserve">
<style type="text/css">
	.st0{fill:#FFFFFF;}
</style>
<g id="a">
</g>
<g id="b">
	<g id="c">
		<g>
			<path class="st0" d="M63.2,64c13.3,0,24.5,8.7,28.3,20.7h138.1c3.8-12.1,15.2-20.9,28.6-20.9c13.4,0,24.8,8.8,28.6,20.9H297V44.3
				h-136c-0.1,0-0.2,0-0.3-0.1c-0.1-0.1-0.1-0.2-0.1-0.3L160.8,0H103L58.4,44.6c-0.1,0.1-0.2,0.1-0.3,0.1H23.7
				c-1.1,0-2.2,0.5-3.4,1.4c-1.2,0.9-2.5,2.2-3.7,3.8c-2.5,3.2-5,7.7-7.4,12.4C5.2,70.6,1.7,79.7,0,84.7h34.9
				C38.7,72.7,50,64,63.2,64L63.2,64z M149.5,41.7h-13.7l3.7-33.2h10.1V41.7L149.5,41.7z M102.4,8.5h32.4l-3.7,33.2H71.6L102.4,8.5z
				"/>
			<path class="st0" d="M288.3,93.7c0,1.5-0.1,3-0.3,4.5h10.4l6.8-9H288C288.2,90.7,288.3,92.2,288.3,93.7z"/>
			<path class="st0" d="M228.6,98.2c-0.2-1.5-0.3-3-0.3-4.5s0.1-3,0.3-4.5h-136c0.2,1.5,0.3,3,0.3,4.5s-0.1,3-0.3,4.5H228.6z"/>
			<path class="st0" d="M1,89.2l2.5,9h30.4c-0.2-1.5-0.3-3-0.3-4.5s0.1-3,0.3-4.5C33.8,89.2,1,89.2,1,89.2z"/>
			<path class="st0" d="M88.4,93.7c0-7-2.8-13.2-7.4-17.8c-4.6-4.6-10.8-7.4-17.8-7.4S50,71.4,45.4,75.9c-4.6,4.6-7.4,10.8-7.4,17.8
				s2.8,13.2,7.4,17.8c4.6,4.6,10.8,7.4,17.8,7.4s13.2-2.8,17.8-7.4S88.4,100.7,88.4,93.7z M63.2,108c-7.9,0-14.3-6.4-14.3-14.3
				s6.4-14.3,14.3-14.3s14.3,6.4,14.3,14.3S71.1,108,63.2,108z"/>
			<path class="st0" d="M30.4,118.9c-1.3,0-2.3,1-2.3,2.3s1,2.3,2.3,2.3h261.9c1.3,0,2.3-1,2.3-2.3s-1-2.3-2.3-2.3h-30.5
				c5.6-0.8,10.7-3.4,14.5-7.2c4.6-4.6,7.4-10.9,7.5-18c0-7-2.8-13.4-7.5-18c-4.6-4.6-11-7.4-18-7.4s-13.4,2.8-18,7.4
				c-4.6,4.6-7.4,10.9-7.4,18s2.8,13.4,7.4,18c3.8,3.8,8.9,6.4,14.5,7.2H30.4z M243.9,93.7c0-8,6.4-14.4,14.4-14.4
				c8,0,14.4,6.4,14.4,14.4s-6.5,14.4-14.4,14.4S243.9,101.7,243.9,93.7z"/>
		</g>
	</g>
</g>
</svg>
