<?xml version="1.0" encoding="utf-8"?>
<!-- Generator: Adobe Illustrator 26.1.0, SVG Export Plug-In . SVG Version: 6.00 Build 0)  -->
<svg version="1.1" id="Layer_1" xmlns="http://www.w3.org/2000/svg" xmlns:xlink="http://www.w3.org/1999/xlink" x="0px" y="0px"
	 viewBox="0 0 307.1 120" style="enable-background:new 0 0 307.1 120;" xml:space="preserve">
<style type="text/css">
	.st0{fill:#FFFFFF;}
</style>
<g id="a">
</g>
<g id="b">
	<g id="c">
		<g>
			<path class="st0" d="M63.2,57.1c14.3,0,26.4,9.6,30.2,22.8h123.9c3.8-13.1,15.9-22.8,30.2-22.8c14.3,0,26.4,9.6,30.2,22.8h27.1
				v-38H268c-0.1,0-0.2-0.1-0.3-0.2L229.8,0H127.2L85,42.2c-0.1,0.1-0.2,0.1-0.3,0.1H2.3v37.6H33C36.8,66.7,48.9,57.1,63.2,57.1
				L63.2,57.1z M180.6,10.1h40.1l29.1,31.4h-69.2L180.6,10.1L180.6,10.1z M127.6,10.1h44.5v31.4H98.4L127.6,10.1L127.6,10.1z"/>
			<path class="st0" d="M31.8,88.5c0-1.4,0.1-2.8,0.3-4.1H0v8.2h32C31.9,91.3,31.8,89.9,31.8,88.5L31.8,88.5z"/>
			<path class="st0" d="M279,88.5c0,1.4-0.1,2.8-0.3,4.1h28.4v-8.2h-28.4C278.9,85.8,279,87.2,279,88.5z"/>
			<path class="st0" d="M216.4,92.6c-0.2-1.3-0.3-2.7-0.3-4.1s0.1-2.8,0.3-4.1h-122c0.2,1.3,0.3,2.7,0.3,4.1s-0.1,2.8-0.3,4.1
				C94.4,92.6,216.4,92.6,216.4,92.6z"/>
			<path class="st0" d="M90.1,88.5c0-7.4-3-14.1-7.9-19c-4.9-4.9-11.6-7.9-19-7.9s-14.1,3-19,7.9c-4.9,4.9-7.9,11.6-7.9,19
				s3,14.1,7.9,19c4.9,4.9,11.6,7.9,19,7.9s14.1-3,19-7.9C87.1,102.7,90.1,96,90.1,88.5z M63.2,103.7c-8.4,0-15.2-6.8-15.2-15.2
				s6.8-15.2,15.2-15.2s15.2,6.8,15.2,15.2S71.6,103.7,63.2,103.7z"/>
			<path class="st0" d="M274.4,88.5c0-7.4-3-14.1-7.9-19c-4.9-4.9-11.6-7.9-19-7.9s-14.1,3-19,7.9c-4.9,4.9-7.9,11.6-7.9,19
				s3,14.1,7.9,19c4.9,4.9,11.6,7.9,19,7.9s14.1-3,19-7.9C271.4,102.7,274.4,96,274.4,88.5z M247.5,103.7c-8.4,0-15.1-6.8-15.1-15.2
				s6.8-15.2,15.1-15.2s15.2,6.8,15.2,15.2S255.9,103.7,247.5,103.7L247.5,103.7z"/>
			<path class="st0" d="M29.3,115.4c-1.3,0-2.3,1-2.3,2.3s1,2.3,2.3,2.3h247.4c1.3,0,2.3-1,2.3-2.3s-1-2.3-2.3-2.3H29.3z"/>
		</g>
	</g>
</g>
</svg>
