<?xml version="1.0" encoding="utf-8"?>
<!-- Generator: Adobe Illustrator 26.1.0, SVG Export Plug-In . SVG Version: 6.00 Build 0)  -->
<svg version="1.1" id="Layer_1" xmlns="http://www.w3.org/2000/svg" xmlns:xlink="http://www.w3.org/1999/xlink" x="0px" y="0px"
	 viewBox="0 0 309 125.9" style="enable-background:new 0 0 309 125.9;" xml:space="preserve">
<style type="text/css">
	.st0{fill:#FFFFFF;}
</style>
<g id="a">
</g>
<g id="b">
	<g id="c">
		<g>
			<path class="st0" d="M7.2,78.1c-1.6,3.9-2.8,7.3-3.7,9.8h29.4c1-3.6,2.7-6.9,4.8-9.8H7.2z"/>
			<path class="st0" d="M307.1,78.1h-34.5c2.1,2.9,3.8,6.2,4.8,9.8h27.8c0.4-1.9,1-4.5,1.5-7.5C306.8,79.6,306.9,78.9,307.1,78.1
				L307.1,78.1z"/>
			<path class="st0" d="M221.7,78.1H88.5c2.1,2.9,3.8,6.2,4.8,9.8h123.7C218,84.3,219.6,81,221.7,78.1z"/>
			<path class="st0" d="M306.7,50.7c-0.5-0.5-1.1-0.7-1.9-0.7h-37.2c-0.2,0-0.3-0.1-0.4-0.3c0,0-0.1-0.3-0.4-0.9
				c-0.3-0.6-0.6-1.4-1.1-2.4c-1-2.1-2.4-4.9-4.1-8.2c-3.4-6.5-8-14.7-12.8-21c-3.2-4.2-6.5-7.6-9.5-9.1C233.9,5.3,226,3.3,216.8,2
				c-9.2-1.3-19.6-2-30.3-2c-11.6,0-23.5,0.8-33.9,2.2c-10.4,1.4-19.5,3.4-25.7,6c-2.9,1.2-6.6,3.9-10.6,7.4
				c-3.9,3.5-8.2,7.7-12.2,12.1c-8,8.6-15.2,17.6-18.1,21.1c-0.8,1-1.2,1.6-1.2,1.6c-0.1,0.1-0.2,0.2-0.4,0.2H27.2
				c-1.2,0-2.5,0.5-3.8,1.3c-1.3,0.8-2.6,2.1-3.9,3.6c-2.6,3.1-5.1,7.2-7.3,11.7c-1.2,2.4-2.3,4.8-3.4,7.2h32.2
				c5.7-5.6,13.5-9.1,22-9.1s16.4,3.5,22,9.1h139.9c5.7-5.6,13.4-9.1,22-9.1s16.4,3.5,22,9.1h38.5c0.7-4.7,1.3-9.6,1.3-13.8
				c0-2.3-0.2-4.4-0.5-6.1S307.5,51.4,306.7,50.7L306.7,50.7z M170.1,52.5h-71c-1.3,0-2.3-1-2.3-2.3s1-2.3,2.3-2.3h7.7
				c4.6-21.3,28.6-32.3,58.4-34.6v34.6h4.9c1.3,0,2.3,1,2.3,2.3S171.3,52.5,170.1,52.5L170.1,52.5z M253.3,52.5h-68.4
				c-1.3,0-2.3-1-2.3-2.3s1-2.3,2.3-2.3h4.7V13.3c29.9,2.3,53.8,13.3,58.4,34.6h5.3c1.3,0,2.3,1,2.3,2.3S254.6,52.5,253.3,52.5
				L253.3,52.5z"/>
			<path class="st0" d="M31.7,96.6c0-1.4,0.1-2.8,0.3-4.1H0v8.2h32C31.8,99.3,31.7,97.9,31.7,96.6z"/>
			<path class="st0" d="M306.6,100.6v-8.2h-28.4c0.2,1.3,0.3,2.7,0.3,4.1s-0.1,2.8-0.3,4.1H306.6z"/>
			<path class="st0" d="M94.2,92.5c0.2,1.3,0.3,2.7,0.3,4.1s-0.1,2.8-0.3,4.1H216c-0.2-1.3-0.3-2.7-0.3-4.1s0.1-2.8,0.3-4.1
				C216,92.5,94.2,92.5,94.2,92.5z"/>
			<path class="st0" d="M34,125.9h261.5c1.3,0,2.3-1,2.3-2.3s-1-2.3-2.3-2.3h-38.1c3.3-1.4,6.2-3.3,8.7-5.8c4.9-4.9,7.9-11.5,7.9-19
				s-3-14.1-7.9-19c-4.9-4.8-11.5-7.8-19-7.8s-14.1,3-19,7.8c-4.9,4.9-7.9,11.5-7.9,19s3,14.1,7.9,19c2.5,2.5,5.4,4.4,8.7,5.8H73.4
				c3.3-1.4,6.2-3.3,8.7-5.8c4.9-4.9,7.9-11.5,7.9-19s-3-14.1-7.9-19c-4.8-4.8-11.5-7.8-19-7.8s-14.1,3-19,7.8
				c-4.9,4.9-7.8,11.5-7.8,19s3,14.1,7.8,19c2.5,2.5,5.4,4.4,8.7,5.8H34c-1.3,0-2.3,1-2.3,2.3S32.7,125.9,34,125.9L34,125.9z
				 M232,96.6c0-8.4,6.8-15.1,15.1-15.1s15.1,6.8,15.1,15.1s-6.8,15.1-15.1,15.1S232,104.9,232,96.6z M48,96.6
				c0-8.4,6.8-15.1,15.1-15.1s15.1,6.8,15.1,15.1s-6.8,15.1-15.1,15.1S48,104.9,48,96.6z"/>
		</g>
	</g>
</g>
</svg>
