<?xml version="1.0" encoding="utf-8"?>
<!-- Generator: Adobe Illustrator 26.1.0, SVG Export Plug-In . SVG Version: 6.00 Build 0)  -->
<svg version="1.1" id="Layer_1" xmlns="http://www.w3.org/2000/svg" xmlns:xlink="http://www.w3.org/1999/xlink" x="0px" y="0px"
	 viewBox="0 0 316.3 140.9" style="enable-background:new 0 0 316.3 140.9;" xml:space="preserve">
<style type="text/css">
	.st0{fill:#FFFFFF;}
</style>
<g id="a">
</g>
<g id="b">
	<g id="c">
		<g>
			<path class="st0" d="M311.3,21.7c-1.3-7.7-3.4-14.1-6.5-17.8C302.6,1.4,300.1,0,297,0H152.2c-1.2,0-3,0.5-5.2,1.3
				c-2.2,0.9-4.9,2.1-7.8,3.7c-5.9,3.1-12.8,7.3-19.8,11.8c-14,8.9-28.1,18.9-33.7,22.8c-1.6,1.1-2.5,1.8-2.5,1.8l-0.2,0.1
				c0,0-29.1,8.2-60.5,8.2c-1.2,0-2.2,0.6-3.2,1.9c-1,1.3-1.9,3.2-2.6,5.5c-1.5,4.6-2.6,10.9-3.3,17.3c-1.1,10.2-1.4,20.8-1.5,26.2
				h40.5C56.4,88.1,68.1,79,81.9,79c5.6,0,10.8,1.5,15.3,4.1V43h3.7v42.6c4.9,3.8,8.6,9,10.5,15h60.1V8.3h55.9v34.7h-52.3v57.7H221
				c2.2-7.1,6.9-13.1,13.1-17V8.3h53c1.3,0,2.5,0.3,3.5,0.9s1.9,1.4,2.5,2.4c1.4,1.9,2.3,4.4,2.9,7.1c1.3,5.4,1.5,11.6,1.5,16.3
				c0,3.7-0.2,6.2-0.2,6.3l-0.1,1.7h-59.5v38.7c3.9-1.8,8.3-2.8,12.9-2.8c14,0,25.8,9.2,29.8,21.8h28.8c0.1-0.7,0.2-1.6,0.3-2.6
				c0.4-3.1,0.9-7.4,1.4-12.6c1-10.4,2-24.2,2-37.6C313,38.5,312.5,29.5,311.3,21.7L311.3,21.7z M164.2,42.9H97.3l4.4-3.3
				c0,0,15.6-11.8,30.2-20.8c4.9-3,9.6-5.8,13.7-7.7c2.3-1.1,4.4-1.9,6.3-2.4c1-0.2,1.9-0.4,2.8-0.4h9.6L164.2,42.9L164.2,42.9z"/>
			<path class="st0" d="M311.7,114.7v-9.5h-30.2c0.2,1.6,0.4,3.2,0.4,4.8s-0.1,3.2-0.4,4.8L311.7,114.7L311.7,114.7z"/>
			<path class="st0" d="M4.6,105.2v9.5h46.7c-0.2-1.6-0.4-3.1-0.4-4.8s0.1-3.2,0.4-4.8L4.6,105.2L4.6,105.2z"/>
			<path class="st0" d="M112.4,105.2c0.2,1.6,0.4,3.2,0.4,4.8s-0.1,3.2-0.4,4.8h107.5c-0.2-1.6-0.4-3.1-0.4-4.8s0.1-3.2,0.4-4.8
				H112.4z"/>
			<path class="st0" d="M108.2,109.9c0-7.3-2.9-13.8-7.7-18.6c-4.8-4.8-11.4-7.7-18.6-7.7S68,86.6,63.3,91.3
				c-4.8,4.8-7.7,11.3-7.7,18.6s3,13.8,7.7,18.6c4.8,4.8,11.3,7.7,18.6,7.7s13.8-2.9,18.6-7.7S108.2,117.2,108.2,109.9z M81.9,124.8
				c-8.2,0-14.9-6.7-14.9-14.9s6.7-14.9,14.9-14.9s14.9,6.7,14.9,14.9S90.1,124.8,81.9,124.8z"/>
			<path class="st0" d="M314,136.3h-59.6c5.9-0.8,11.2-3.5,15.2-7.5c4.8-4.8,7.8-11.4,7.8-18.8s-3-14-7.8-18.8
				c-4.8-4.8-11.5-7.8-18.8-7.8s-14,3-18.8,7.8c-4.8,4.8-7.8,11.4-7.8,18.8s3,14,7.8,18.8c4,4,9.3,6.7,15.2,7.5H2.3
				c-1.3,0-2.3,1-2.3,2.3s1,2.3,2.3,2.3H314c1.3,0,2.3-1,2.3-2.3S315.3,136.3,314,136.3z M235.7,110c0-8.3,6.7-15,15-15
				c8.3,0,15,6.7,15,15s-6.7,15-15,15S235.7,118.3,235.7,110L235.7,110z"/>
		</g>
	</g>
</g>
</svg>
