<?xml version="1.0" encoding="utf-8"?>
<!-- Generator: Adobe Illustrator 26.1.0, SVG Export Plug-In . SVG Version: 6.00 Build 0)  -->
<svg version="1.1" id="Layer_1" xmlns="http://www.w3.org/2000/svg" xmlns:xlink="http://www.w3.org/1999/xlink" x="0px" y="0px"
	 viewBox="0 0 310.8 120.9" style="enable-background:new 0 0 310.8 120.9;" xml:space="preserve">
<style type="text/css">
	.st0{fill:#FFFFFF;}
</style>
<g id="a">
</g>
<g id="b">
	<g id="c">
		<g>
			<path class="st0" d="M1,82.8h41.1C46,71.1,57,62.6,70,62.6s24,8.5,27.8,20.2h135.1c3.8-11.9,14.9-20.5,28-20.5
				c13.1,0,24.3,8.6,28,20.5h21.9V43.1L260.7,0H106.1L62.4,43.7c-0.1,0.1-0.2,0.1-0.3,0.1H6.4c-1.2,0-2.2,0.6-3,1.8s-1.5,2.9-2,5
				C0.3,54.7,0,60.3,0,65.8C0,72.4,0.5,79,0.8,82.8C0.9,82.8,1,82.8,1,82.8z M222.4,15h35.1l32.3,27.9h-67.4L222.4,15L222.4,15z
				 M152.4,15h59.5v27.9h-59.5V15z M106.3,15h34.6v27.9h-59L106.3,15z M65.1,44.2h234.1c0.2,0,0.5,0.2,0.5,0.5
				c0,0.2-0.2,0.5-0.5,0.5H65.1c-0.3,0-0.5-0.2-0.5-0.5C64.6,44.4,64.8,44.2,65.1,44.2z"/>
			<path class="st0" d="M3.3,87.4v8.7h37.8c-0.2-1.4-0.3-2.9-0.3-4.3s0.1-2.9,0.3-4.3L3.3,87.4L3.3,87.4z"/>
			<path class="st0" d="M309,87.4h-19c0.2,1.4,0.3,2.9,0.3,4.3s-0.1,2.9-0.3,4.3h19V87.4L309,87.4z"/>
			<path class="st0" d="M98.8,87.4c0.2,1.4,0.3,2.9,0.3,4.3s-0.1,2.9-0.3,4.3h133c-0.2-1.4-0.3-2.9-0.3-4.3s0.1-2.9,0.3-4.3H98.8z"
				/>
			<path class="st0" d="M94.6,91.7c0-6.8-2.8-12.9-7.2-17.4c-4.4-4.5-10.6-7.2-17.4-7.2c-6.8,0-12.9,2.8-17.4,7.2
				c-4.4,4.5-7.2,10.6-7.2,17.4s2.8,12.9,7.2,17.4c4.5,4.5,10.6,7.2,17.4,7.2s12.9-2.7,17.4-7.2C91.8,104.7,94.6,98.5,94.6,91.7z
				 M70,105.7c-7.7,0-14-6.3-14-14s6.3-14,14-14s14,6.3,14,14S77.7,105.7,70,105.7z"/>
			<path class="st0" d="M37.8,116.3c-1.3,0-2.3,1-2.3,2.3s1,2.3,2.3,2.3h256.3c1.3,0,2.3-1,2.3-2.3s-1-2.3-2.3-2.3h-29.8
				c5.5-0.7,10.4-3.3,14.1-7c4.5-4.5,7.3-10.7,7.3-17.6s-2.8-13.1-7.3-17.6c-4.5-4.5-10.7-7.3-17.6-7.3c-6.9,0-13.1,2.8-17.6,7.3
				c-4.5,4.5-7.3,10.7-7.3,17.6s2.8,13.1,7.3,17.6c3.8,3.7,8.7,6.3,14.2,7H37.8z M246.8,91.8c0-7.8,6.3-14.1,14.1-14.1
				S275,84,275,91.8s-6.3,14.1-14.1,14.1S246.8,99.5,246.8,91.8L246.8,91.8z"/>
		</g>
	</g>
</g>
</svg>
